PathFileType	4	(X/Y/Z)	2.trc
DataRate	CameraRate	NumFrames	NumMarkers	Units	OrigDataRate	OrigDataStartFrame	OrigNumFrames
147	147	4	50	mm	147	1123	1496
Frame#	Time	L_IAS			R_IAS			L_TH1			L_TH2			L_TH3			L_TH4			L_FLE			L_FME			L_SK1			L_SK2			L_SK3			L_SK4			L_FAL			L_TAM			L_FCC			L_FM1			L_FM2			L_FM5			R_TH1			R_TH2			R_TH3			R_TH4			R_FLE			R_FME			R_SK2			R_SK1			R_SK3			R_SK4			R_FAL			R_TAM			R_FCC			R_FM1			R_FM2			R_FM5			R_IPS			L_IPS			CV7			L_SIA			R_SIA			TV10			L_SAE			R_SAE			L_ARM			R_ARM			L_HLE			R_HLE			L_RSP			L_USP			R_RSP			R_USP		
		X1	Y1	Z1	X2	Y2	Z2	X3	Y3	Z3	X4	Y4	Z4	X5	Y5	Z5	X6	Y6	Z6	X7	Y7	Z7	X8	Y8	Z8	X9	Y9	Z9	X10	Y10	Z10	X11	Y11	Z11	X12	Y12	Z12	X13	Y13	Z13	X14	Y14	Z14	X15	Y15	Z15	X16	Y16	Z16	X17	Y17	Z17	X18	Y18	Z18	X19	Y19	Z19	X20	Y20	Z20	X21	Y21	Z21	X22	Y22	Z22	X23	Y23	Z23	X24	Y24	Z24	X25	Y25	Z25	X26	Y26	Z26	X27	Y27	Z27	X28	Y28	Z28	X29	Y29	Z29	X30	Y30	Z30	X31	Y31	Z31	X32	Y32	Z32	X33	Y33	Z33	X34	Y34	Z34	X35	Y35	Z35	X36	Y36	Z36	X37	Y37	Z37	X38	Y38	Z38	X39	Y39	Z39	X40	Y40	Z40	X41	Y41	Z41	X42	Y42	Z42	X43	Y43	Z43	X44	Y44	Z44	X45	Y45	Z45	X46	Y46	Z46	X47	Y47	Z47	X48	Y48	Z48	X49	Y49	Z49	X50	Y50	Z50

1123	7.632653	1044.648093	895.536892	-653.629997	1021.513744	804.423401	-389.199599	1179.703916	908.891533	-723.832134	1170.975722	878.048514	-753.174665	1242.381131	881.288584	-769.104948	1250.288746	910.869169	-738.205756	1330.142671	837.823706	-773.137355	1361.777053	790.987427	-661.256227	1323.630528	750.961590	-799.590014	1285.399378	769.861091	-804.230340	1254.369390	703.583986	-818.115377	1294.042641	685.254692	-812.916014	1157.059971	495.035495	-797.676564	1192.712853	491.833681	-717.023487	1086.096566	533.971703	-738.004200	1212.341259	364.612056	-735.517764	1223.087024	363.903142	-780.569549	1163.177936	377.100498	-832.475263	1071.194712	459.361432	-367.886070	1114.231828	463.813564	-376.769887	1117.837222	396.948885	-407.451940	1078.748742	381.416205	-402.587176	1057.389255	364.917701	-415.273662	1094.742069	376.290567	-534.348160	1055.149841	271.486211	-419.077762	1013.795676	292.299936	-417.633054	1025.958092	205.928126	-431.926808	984.450332	223.363704	-429.052229	923.349690	16.443406	-513.685787	957.725079	37.180252	-597.064183	852.782782	-18.394520	-578.902361	1061.407178	-15.969921	-565.450554	1060.489393	-2.969957	-511.802876	1022.115518	-19.115002	-466.653069	862.827724	864.005225	-481.338661	879.608789	890.291367	-570.627580	988.204888	1335.652067	-473.883477	977.151106	1188.401899	-583.959322	902.443401	1178.438421	-413.046074	921.356296	1095.935323	-480.526675	1115.217940	1329.972957	-574.356591	984.540065	1344.674510	-326.829535	1100.090915	1292.896134	-729.487369	878.621446	1321.883165	-204.856222	1077.680445	1238.049383	-869.532876	798.145968	1303.295640	-76.563515	1213.911669	1116.406667	-1029.879574	1180.343069	1157.648629	-1065.004769	851.984328	1365.634051	158.194380	799.314526	1406.786345	141.324154
1124	7.639456	1043.625723	898.632383	-653.512004	1022.140351	806.400958	-389.256887	1177.411200	913.782233	-724.754988	1168.965474	882.762349	-754.005867	1240.191365	886.867305	-770.351979	1247.936812	916.617620	-739.526540	1328.538917	844.392407	-774.729017	1360.865862	798.055184	-663.038359	1322.940559	757.288697	-800.827437	1284.473779	775.757229	-805.423496	1254.128746	709.101651	-818.925064	1293.904674	691.179384	-813.723142	1159.061917	499.678986	-797.278190	1194.999160	497.139902	-716.694290	1088.070799	538.459797	-737.546547	1215.376535	369.872735	-734.530478	1225.949253	368.949029	-779.651965	1165.751076	381.517903	-831.368264	1069.493701	460.399617	-368.438080	1112.641306	464.643208	-377.173184	1115.790594	397.767289	-407.914158	1076.657370	382.528015	-403.043934	1055.257414	366.095957	-415.652826	1092.737844	377.146139	-534.710202	1053.191063	272.483775	-419.362273	1011.730087	293.091506	-418.085291	1024.386438	206.757383	-432.125767	982.783425	223.980992	-429.431733	923.273057	16.379973	-513.713433	957.614264	37.176336	-597.058704	852.770729	-18.491725	-578.941890	1061.400158	-15.939966	-565.430999	1060.490496	-2.928892	-511.791038	1022.117094	-19.109506	-466.674047	862.897628	865.681787	-480.542240	879.056777	892.230048	-569.862238	987.164220	1337.722737	-473.756791	976.271632	1190.456226	-583.854974	901.880278	1180.494357	-412.649231	920.584015	1098.033506	-479.874877	1113.739861	1332.266607	-574.392377	983.946050	1346.828210	-326.615376	1099.627350	1295.669852	-729.602229	878.304138	1323.673612	-204.417094	1079.381374	1241.157598	-869.966027	798.003442	1304.823745	-75.989889	1218.742847	1126.241899	-1032.460844	1183.477999	1166.708024	-1066.774313	852.647298	1366.591090	158.746256	799.947669	1407.896608	142.088019
1125	7.646259	1042.608505	901.640212	-653.412984	1022.730327	808.332517	-389.328609	1175.099054	918.550429	-725.676432	1166.947406	887.359398	-754.842672	1237.982544	892.327738	-771.594508	1245.561482	922.254091	-740.847705	1326.908017	850.846966	-776.308350	1359.902333	805.002044	-664.816153	1322.219799	763.512486	-802.048776	1283.530524	781.553705	-806.604948	1253.867067	714.524987	-819.727002	1293.738441	697.009114	-814.522422	1161.049914	504.268060	-796.898636	1197.259324	502.375414	-716.387098	1090.031699	542.894918	-737.104802	1218.373565	375.069588	-733.579775	1228.779620	373.937591	-778.766501	1168.311452	385.894075	-830.299939	1067.721767	461.430235	-368.904036	1110.986093	465.463451	-377.460433	1113.711570	398.580058	-408.237598	1074.522956	383.622497	-403.400490	1053.086920	367.266177	-415.943602	1090.772563	377.984687	-534.967240	1051.200190	273.471710	-419.569360	1009.637791	293.879288	-418.471694	1022.777759	207.584453	-432.256380	981.081505	224.602571	-429.758972	923.201250	16.320555	-513.725430	957.518342	37.206576	-597.017485	852.763424	-18.556033	-578.976759	1061.390995	-15.893643	-565.390978	1060.499475	-2.881133	-511.756355	1022.119127	-19.110501	-466.687418	862.949406	867.299715	-479.789478	878.503161	894.092351	-569.142246	986.150154	1339.734129	-473.618260	975.383918	1192.453994	-583.768373	901.329082	1182.495964	-412.259642	919.814522	1100.076415	-479.252612	1112.280229	1334.476046	-574.443430	983.383552	1348.907477	-326.394420	1099.131309	1298.335781	-729.723378	878.016538	1325.398959	-203.976312	1081.043586	1244.151795	-870.372848	797.888828	1306.286626	-75.418023	1223.549199	1136.021025	-1034.688116	1186.607465	1175.555798	-1068.278914	853.340828	1367.488858	159.293821	800.606272	1408.944928	142.849384
1126	7.653061	1041.598710	904.556515	-653.332516	1023.280427	810.218345	-389.411326	1172.767815	923.194690	-726.597052	1164.920653	891.838434	-755.686156	1235.755426	897.667281	-772.832495	1243.162655	927.775146	-742.168774	1325.249956	857.185294	-777.876536	1358.891914	811.826617	-666.589123	1321.469278	769.631626	-803.256344	1282.568926	787.248182	-807.775970	1253.585148	719.852380	-820.523708	1293.547978	702.743634	-815.317037	1163.026240	508.798272	-796.541292	1199.498425	507.536182	-716.105122	1091.982388	547.271419	-736.680439	1221.337388	380.199124	-732.670788	1231.582869	378.865733	-777.918842	1170.861059	390.224669	-829.274712	1065.879370	462.454479	-369.278815	1109.264842	466.274172	-377.628343	1111.599722	399.387095	-408.420141	1072.345235	384.699646	-403.654887	1050.877770	368.428428	-416.144459	1088.848559	378.806843	-535.116786	1049.177996	274.450225	-419.697302	1007.519578	294.663372	-418.791477	1021.132203	208.409297	-432.316902	979.344936	225.228781	-430.032643	923.132999	16.265293	-513.721166	957.436147	37.270961	-596.939765	852.760279	-18.588153	-579.006658	1061.379509	-15.830091	-565.329650	1060.515839	-2.825184	-511.698184	1022.121411	-19.118090	-466.693104	862.981603	868.860477	-479.083191	877.949074	895.878820	-568.469564	985.162891	1341.683097	-473.468408	974.489326	1194.392817	-583.701042	900.788785	1184.441958	-411.878480	919.048419	1102.062711	-478.662859	1110.838136	1336.597309	-574.510205	982.851200	1350.910505	-326.166036	1098.609339	1300.888855	-729.853992	877.757893	1327.055946	-203.532436	1082.676404	1247.028566	-870.755555	797.803521	1307.679109	-74.846307	1228.320054	1145.729807	-1036.584351	1189.731116	1184.187741	-1069.542618	854.064519	1368.324511	159.838090	801.290499	1409.927472	143.609048
